<svg xmlns="http://www.w3.org/2000/svg" fill="none" viewBox="0 0 128 128" id="Coffee--Streamline-Block-Free" height="128" width="128"><desc>Coffee Streamline Icon: https://streamlinehq.com</desc><path fill="#000000" d="M16 20C16 8.95432 24.95432 0 36 0H40v40h-4C24.95432 40 16 31.04568 16 20Z" stroke-width="8"></path><path fill="#000000" fill-rule="evenodd" d="M0 48v32c0 26.5096 21.49032 48 48 48 17.7668 0 33.2792 -9.6528 41.5784 -24H100c15.464 0 28 -12.536 28 -28S115.464 48 100 48H0Zm96 15.99976V80c0 2.7256 -0.2272 5.3976 -0.6632 7.9992H100c6.6272 0 12 -5.372 12 -11.9996 0 -6.62744 -5.3728 -12 -12 -11.99992l-4 0.00008Z" clip-rule="evenodd" stroke-width="8"></path><path fill="#000000" d="M68 0C56.95432 0 48 8.95432 48 20S56.95432 40 68 40H72V0h-4Z" stroke-width="8"></path></svg>